<svg xmlns="http://www.w3.org/2000/svg" viewBox="0 0 93.46 107.23"><defs><style>.cls-1{fill:#231f20;stroke:#231f20;stroke-miterlimit:10;}</style></defs><g id="Layer_2" data-name="Layer 2"><g id="Layer_1-2" data-name="Layer 1"><path class="cls-1" d="M93,21.46v32.6a3.31,3.31,0,0,1-.81,2.16L59,94.37,49.21,105.6a3.3,3.3,0,0,1-5,0L34.49,94.37,1.31,56.22A3.31,3.31,0,0,1,.5,54.06V21.45a3.28,3.28,0,0,1,.9-2.26L18.2,1.52a3.29,3.29,0,0,1,4.76,0L44.35,24a3.29,3.29,0,0,0,4.76,0L70.49,1.52a3.29,3.29,0,0,1,4.76,0L92.06,19.2A3.28,3.28,0,0,1,93,21.46Z"/></g></g></svg>